<svg xmlns="http://www.w3.org/2000/svg" width="100.371" height="58.933"><g id="Grupo_201" data-name="Grupo 201" transform="translate(-3658.155 558.621)"><g id="Grupo_199" data-name="Grupo 199" transform="translate(3658.155 -558.621)"><rect id="Retângulo_342" data-name="Retângulo 342" width="6.273" height="37.639" rx="3.137" fill="#68823d"/><rect id="Retângulo_343" data-name="Retângulo 343" width="6.273" height="37.639" rx="3.137" transform="translate(12.546)" fill="#89bb35"/><rect id="Retângulo_344" data-name="Retângulo 344" width="6.273" height="37.639" rx="3.137" transform="translate(25.093)" fill="#9ad931"/><rect id="Retângulo_345" data-name="Retângulo 345" width="6.273" height="37.639" rx="3.137" transform="translate(37.639)" fill="#aaf52d"/><path id="Caminho_1636" data-name="Caminho 1636" d="M4273.312-501.083v-1.394a.606.606 0 01.606-.606h4.984a.605.605 0 01.605.6v.81a3.423 3.423 0 00.731 2.537 3.973 3.973 0 002.683.683h2.292a3.8 3.8 0 002.659-.732 3.785 3.785 0 00.756-2.732v-.585a2.448 2.448 0 00-1.146-2.171 6.048 6.048 0 00-2.854-.9 30.755 30.755 0 01-3.683-.561 23.744 23.744 0 01-3.683-1.073 5.772 5.772 0 01-2.854-2.585 9.572 9.572 0 01-1.146-4.951v-1.707a7.875 7.875 0 012.146-5.9 8.157 8.157 0 015.952-2.1h4.878a8.227 8.227 0 016 2.1 7.879 7.879 0 012.146 5.9v1.343a.609.609 0 01-.609.609h-4.975a.606.606 0 01-.606-.606v-.711a3.508 3.508 0 00-.731-2.585 3.979 3.979 0 00-2.683-.683h-1.9a3.687 3.687 0 00-2.707.756 4.45 4.45 0 00-.708 2.951v.927q0 2.293 4 2.634a24.78 24.78 0 017.365 1.659 6.255 6.255 0 012.854 2.61 9.107 9.107 0 011.146 4.8v1.659a7.877 7.877 0 01-2.146 5.9 8.151 8.151 0 01-5.952 2.1h-5.316a8.15 8.15 0 01-5.952-2.1 7.874 7.874 0 01-2.152-5.896z" transform="translate(-4216.805 527.586)" fill="#aaf52d"/><path id="Caminho_1637" data-name="Caminho 1637" d="M4548.349-524.449h-19.277a.6.6 0 00-.6.6v4.158a.6.6 0 00.6.6h5.981a.537.537 0 01.537.536v24.859a.6.6 0 00.6.6h4.986a.6.6 0 00.6-.6v-24.859q0-.536.585-.536h5.981a.6.6 0 00.6-.6v-4.156a.606.606 0 00-.593-.602z" transform="translate(-4448.584 527.586)" fill="#aaf52d"/></g><g id="Grupo_200" data-name="Grupo 200" transform="translate(3658.155 -518.415)" fill="#aaf52d"><path id="Caminho_1638" data-name="Caminho 1638" d="M3659.525-81.789V-70.6a.229.229 0 01-.262.255h-.845a.228.228 0 01-.262-.255v-11.189a.229.229 0 01.262-.255h.845a.229.229 0 01.262.255z" transform="translate(-3658.155 85.581)"/><path id="Caminho_1639" data-name="Caminho 1639" d="M3708.753-82.044h1.52a.229.229 0 01.263.255V-70.6a.229.229 0 01-.263.255h-.826a.229.229 0 01-.263-.255v-9.66h-.075l-2.909 7.13a.36.36 0 01-.338.236h-.9a.307.307 0 01-.319-.236l-2.965-7.149h-.075v9.679q0 .255-.244.255h-.826a.229.229 0 01-.263-.255v-11.189a.229.229 0 01.263-.255h1.52a.219.219 0 01.225.146l3.078 7.531h.094l3.078-7.531c.025-.102.1-.146.225-.146z" transform="translate(-3696.405 85.581)"/><path id="Caminho_1640" data-name="Caminho 1640" d="M3839.383-70.347h-.844a.229.229 0 01-.263-.255v-11.187a.229.229 0 01.263-.255h4.391a2.769 2.769 0 012.027.719 2.64 2.64 0 01.732 1.974v2.019a2.634 2.634 0 01-.732 1.983 2.79 2.79 0 01-2.027.71h-3.1q-.187 0-.187.164v3.875a.229.229 0 01-.26.253zm.451-5.476h2.909a1.388 1.388 0 001.577-1.564V-79.3a1.4 1.4 0 00-1.577-1.583h-2.909q-.187 0-.187.164v4.73q-.001.167.186.167z" transform="translate(-3821.743 85.581)"/><path id="Caminho_1641" data-name="Caminho 1641" d="M3942.649-70.347h-2.233a2.823 2.823 0 01-2.036-.71 2.615 2.615 0 01-.741-1.983v-6.313a2.615 2.615 0 01.741-1.983 2.823 2.823 0 012.036-.71h2.233a2.8 2.8 0 012.036.719 2.623 2.623 0 01.741 1.974v6.313a2.623 2.623 0 01-.741 1.974 2.8 2.8 0 01-2.036.719zm-2.083-1.164h1.915a1.4 1.4 0 001.576-1.583v-6.2a1.4 1.4 0 00-1.576-1.583h-1.915a1.388 1.388 0 00-1.557 1.583v6.2a1.388 1.388 0 001.557 1.583z" transform="translate(-3911.986 85.581)"/><path id="Caminho_1642" data-name="Caminho 1642" d="M4047.72-70.347h-.845a.228.228 0 01-.262-.255v-11.187a.228.228 0 01.262-.255h4.316a2.837 2.837 0 012.046.719 2.606 2.606 0 01.75 1.974v1.651a2.693 2.693 0 01-.506 1.683 2.422 2.422 0 01-1.408.882v.073l2.177 4.421q.168.291-.188.291h-.844a.5.5 0 01-.469-.255l-2.1-4.4h-2.478q-.187 0-.187.164v4.241a.229.229 0 01-.264.253zm.45-5.767h2.83a1.4 1.4 0 001.613-1.564V-79.3a1.412 1.412 0 00-1.613-1.58h-2.834q-.187 0-.187.164v4.439q.004.163.191.164z" transform="translate(-4010.958 85.581)"/><path id="Caminho_1643" data-name="Caminho 1643" d="M4141.517-70.347h-.844a.228.228 0 01-.263-.255v-10.114c0-.109-.063-.164-.188-.164h-2.552c-.188 0-.281-.085-.281-.255v-.655c0-.17.093-.255.281-.255h6.85c.187 0 .281.085.281.255v.655c0 .17-.094.255-.281.255h-2.552q-.188 0-.188.164V-70.6a.229.229 0 01-.263.253z" transform="translate(-4093.401 85.581)"/><path id="Caminho_1644" data-name="Caminho 1644" d="M4221.94-70.347h-.94c-.163 0-.22-.085-.169-.255l3.509-11.188a.334.334 0 01.356-.255h1.352a.334.334 0 01.356.255l3.509 11.188q.075.255-.168.255h-.958q-.207 0-.263-.255l-.881-2.656h-4.543l-.882 2.656c-.047.171-.14.255-.278.255zm3.4-10.333l-1.933 6.294h3.941l-1.933-6.294z" transform="translate(-4169.17 85.581)"/><path id="Caminho_1645" data-name="Caminho 1645" d="M4341.205-78.206h-.844a.229.229 0 01-.263-.255v-.839a1.4 1.4 0 00-1.576-1.583h-1.933a1.388 1.388 0 00-1.558 1.583v6.2a1.388 1.388 0 001.558 1.583h1.933a1.4 1.4 0 001.576-1.583v-.837a.229.229 0 01.263-.255h.844a.228.228 0 01.263.255v.891a2.616 2.616 0 01-.741 1.983 2.824 2.824 0 01-2.037.71h-.262l-.826.837v.073q1.445 0 1.445 1.182v.236q0 1.164-1.614 1.164h-.582a.213.213 0 01-.245-.236v-.255a.213.213 0 01.245-.236h.45a1.655 1.655 0 00.75-.118.433.433 0 00.207-.409v-.055a.454.454 0 00-.2-.437 1.772 1.772 0 00-.76-.109h-.3a.421.421 0 01-.44-.273.493.493 0 01.121-.528l.751-.837h-1a2.821 2.821 0 01-2.036-.71 2.613 2.613 0 01-.742-1.983v-6.313a2.613 2.613 0 01.742-1.983 2.821 2.821 0 012.036-.71h2.252a2.824 2.824 0 012.037.71 2.617 2.617 0 01.741 1.983v.891a.228.228 0 01-.255.263z" transform="translate(-4271.659 85.581)"/><path id="Caminho_1646" data-name="Caminho 1646" d="M4443.146-105.347h-2.232a2.824 2.824 0 01-2.037-.71 2.613 2.613 0 01-.741-1.983v-6.313a2.613 2.613 0 01.741-1.983 2.824 2.824 0 012.037-.709h2.232a2.8 2.8 0 012.037.719 2.621 2.621 0 01.741 1.974v6.313a2.621 2.621 0 01-.741 1.974 2.8 2.8 0 01-2.037.718zm-2.082-1.164h1.914a1.4 1.4 0 001.576-1.583v-6.2a1.4 1.4 0 00-1.576-1.583h-1.914a1.388 1.388 0 00-1.558 1.583v6.2a1.388 1.388 0 001.558 1.583zm.722-11.887a1.344 1.344 0 01-.779.182q-1.052 0-1.051-1.4v-.71c0-.121.057-.182.169-.182h.395c.112 0 .168.061.168.182v.473a1.772 1.772 0 00.094.71.338.338 0 00.329.182.439.439 0 00.356-.146 3.522 3.522 0 00.356-.646 1.69 1.69 0 01.47-.664 1.359 1.359 0 01.76-.164q1.032 0 1.032 1.419v.71c0 .134-.05.2-.15.2h-.394c-.125 0-.187-.066-.187-.2v-.491a1.691 1.691 0 00-.094-.7.35.35 0 00-.337-.173.431.431 0 00-.338.109 1.5 1.5 0 00-.2.327 1.8 1.8 0 01-.122.237 1.691 1.691 0 01-.476.743z" transform="translate(-4366.544 120.581)"/><path id="Caminho_1647" data-name="Caminho 1647" d="M4553.264-70.347h-5.892a.229.229 0 01-.263-.255v-11.187a.229.229 0 01.263-.255h5.892a.229.229 0 01.264.255v.655a.229.229 0 01-.264.255h-4.6q-.187 0-.187.164v3.675q0 .164.188.164h4.016a.229.229 0 01.263.255v.655a.229.229 0 01-.263.255h-4.016q-.187 0-.187.164v3.875q0 .164.188.164h4.6a.229.229 0 01.264.255v.655a.229.229 0 01-.266.251z" transform="translate(-4465.515 85.581)"/><path id="Caminho_1648" data-name="Caminho 1648" d="M4633.476-73.039v-.582a.229.229 0 01.263-.255h.844a.229.229 0 01.263.255v.473a1.462 1.462 0 001.67 1.637h1.651a1.478 1.478 0 001.67-1.674v-.615q0-1.31-2.233-1.71-.938-.164-1.876-.382a3.361 3.361 0 01-1.6-.846 2.266 2.266 0 01-.657-1.719v-.891a2.622 2.622 0 01.742-1.974 2.8 2.8 0 012.036-.719h2.083a2.811 2.811 0 012.027.719 2.6 2.6 0 01.75 1.974v.455q0 .273-.244.273h-.863q-.244 0-.244-.273v-.327a1.47 1.47 0 00-1.67-1.655h-1.588a1.5 1.5 0 00-1.67 1.728v.728q0 .928 1.257 1.273.563.146 1.238.264t1.36.309a6.936 6.936 0 011.248.473 2.211 2.211 0 01.91.855 2.634 2.634 0 01.348 1.392v.819a2.6 2.6 0 01-.751 1.974 2.808 2.808 0 01-2.027.719h-2.158a2.807 2.807 0 01-2.026-.719 2.6 2.6 0 01-.753-1.979z" transform="translate(-4543.955 85.581)"/></g></g></svg>